<svg width="60" height="54" viewBox="0 0 60 54" fill="none" xmlns="http://www.w3.org/2000/svg">
<path d="M15.7087 29.6415L0.290102 2.59838C-0.375448 1.43148 0.14309 0.743112 1.44746 1.06257C13.1191 3.92212 22.6351 5.35234 29.9953 5.35323C37.3556 5.35323 46.8747 3.92301 58.5525 1.06257C59.8569 0.743112 60.3755 1.43148 59.7099 2.59838L50.5218 18.7091C50.0648 18.685 49.593 18.7665 48.9716 18.8868C45.2683 19.3747 39.1888 21.5708 36.6188 22.9917C38.8961 22.0895 44.4864 21.6363 48.9662 21.4358L31.2021 52.5825C30.5353 53.7494 29.4554 53.7494 28.7899 52.5825L16.8875 31.7093C20.6308 30.9675 24.7565 29.6242 27.3746 27.8798C26.4738 28.5602 20.1537 29.6603 15.7087 29.6415Z" fill="white"/>
</svg>

